<?xml version="1.0" encoding="utf-8"?>
<!-- Generator: Adobe Illustrator 16.0.3, SVG Export Plug-In . SVG Version: 6.00 Build 0)  -->
<!DOCTYPE svg PUBLIC "-//W3C//DTD SVG 1.1//EN" "http://www.w3.org/Graphics/SVG/1.1/DTD/svg11.dtd">
<svg version="1.1" id="Layer_1" xmlns="http://www.w3.org/2000/svg" xmlns:xlink="http://www.w3.org/1999/xlink" x="0px" y="0px"
	 width="40px" height="50px" viewBox="0 0 40 50" enable-background="new 0 0 40 50" xml:space="preserve">
<path fill="#98B3CF" d="M30.235,0.974H1.135v47.924h37.723V9.263L30.235,0.974z M30.605,3.105l6.072,5.875h-6.072V3.105z
	 M3.135,46.897V2.974h25.471v8.006h8.252v35.917H3.135z"/>
<g>
	<path fill="#98B3CF" d="M7.125,17.98c0.818-0.177,1.924-0.287,3.029-0.287c1.725,0,3.073,0.243,4.046,1.149
		c0.885,0.774,1.283,2.012,1.283,3.272c0,1.614-0.487,2.742-1.26,3.582c-0.929,0.973-2.432,1.415-3.626,1.415
		c-0.199,0-0.398,0-0.575,0v5.55H7.125V17.98z M10.021,24.746c0.133,0.044,0.288,0.044,0.464,0.044c1.459,0,2.123-1.039,2.123-2.432
		c0-1.305-0.531-2.322-1.879-2.322c-0.265,0-0.531,0.044-0.708,0.111V24.746z"/>
	<path fill="#98B3CF" d="M16.787,17.98c0.818-0.177,1.924-0.287,3.029-0.287c1.725,0,3.073,0.243,4.046,1.149
		c0.885,0.774,1.282,2.012,1.282,3.272c0,1.614-0.486,2.742-1.26,3.582c-0.929,0.973-2.433,1.415-3.626,1.415
		c-0.199,0-0.398,0-0.575,0v5.55h-2.896V17.98z M19.684,24.746c0.133,0.044,0.288,0.044,0.464,0.044
		c1.459,0,2.123-1.039,2.123-2.432c0-1.305-0.53-2.322-1.879-2.322c-0.265,0-0.531,0.044-0.708,0.111V24.746z"/>
	<path fill="#98B3CF" d="M28.063,20.434h-2.631v-2.675h8.181v2.675H30.96v12.227h-2.896V20.434z"/>
</g>
</svg>
