<?xml version="1.0" encoding="utf-8"?>
<!-- Generator: Adobe Illustrator 19.2.1, SVG Export Plug-In . SVG Version: 6.00 Build 0)  -->
<svg version="1.1" id="Layer_1" xmlns="http://www.w3.org/2000/svg" xmlns:xlink="http://www.w3.org/1999/xlink" x="0px" y="0px"
	 viewBox="0 0 40 50" style="enable-background:new 0 0 40 50;" xml:space="preserve">
<style type="text/css">
	.st0{fill:#989690;}
</style>
<path class="st0" d="M30.2,1H1.1v47.9h37.7V9.3L30.2,1z M30.6,3.1L36.7,9h-6.1V3.1z M3.1,46.9V3h25.5v8h8.3v35.9H3.1z"/>
<g>
	<path class="st0" d="M6.8,18c0.8-0.2,1.9-0.3,3-0.3c1.7,0,3.1,0.2,4,1.1c0.9,0.8,1.3,2,1.3,3.3c0,1.6-0.5,2.7-1.3,3.6
		c-0.9,1-2.4,1.4-3.6,1.4c-0.2,0-0.4,0-0.6,0v5.5H6.8V18z M9.7,24.7c0.1,0,0.3,0,0.5,0c1.5,0,2.1-1,2.1-2.4c0-1.3-0.5-2.3-1.9-2.3
		c-0.3,0-0.5,0-0.7,0.1V24.7z"/>
	<path class="st0" d="M16.4,18c0.7-0.2,1.8-0.3,2.9-0.3c1.9,0,3.2,0.4,4.1,1.3c1.3,1.1,1.9,3.1,1.9,6c0,3-0.8,5.2-2.1,6.3
		c-1,1-2.5,1.4-4.6,1.4c-0.9,0-1.8-0.1-2.4-0.2V18H16.4z M19.3,30.4c0.1,0,0.4,0,0.5,0c1.4,0,2.6-1.4,2.6-5.5c0-3.1-0.8-4.9-2.5-4.9
		c-0.2,0-0.4,0-0.6,0.1V30.4z"/>
	<path class="st0" d="M26.8,17.8h6.5v2.5h-3.6v3.8h3.4v2.4h-3.4v6.1h-2.9V17.8L26.8,17.8z"/>
</g>
</svg>
