<?xml version="1.0" encoding="utf-8"?>
<!-- Generator: Adobe Illustrator 21.1.0, SVG Export Plug-In . SVG Version: 6.00 Build 0)  -->
<svg version="1.1" id="Layer_1" xmlns="http://www.w3.org/2000/svg" xmlns:xlink="http://www.w3.org/1999/xlink" x="0px" y="0px"
	 viewBox="0 0 40 50" style="enable-background:new 0 0 40 50;" xml:space="preserve">
<style type="text/css">
	.st0{fill:#989690;}
</style>
<path class="st0" d="M25.7,24.2c0,5.8,0,11.7,0,17.5c0,0.4,0,0.8-0.1,1.2c-0.3,0.9-1.4,1.2-2.4,0.5c-2.1-1.5-4.1-3-6.2-4.5
	c-2-1.5-4-3-6.1-4.4C10.5,34.1,10,34,9.5,34c-1.7-0.1-3.5,0-5.2-0.1c-2.5-0.1-4.2-1.7-4.3-4.1C0,25.9,0,22.1,0.1,18.3
	c0.1-2,1.8-3.7,3.9-3.8c1.9-0.1,3.7,0,5.6-0.1c0.5,0,1-0.2,1.4-0.5c4-2.9,8-5.8,12-8.8c0.3-0.2,0.6-0.4,0.9-0.5
	c0.8-0.3,1.6,0.2,1.8,1c0.1,0.4,0.1,0.7,0.1,1.1C25.7,12.6,25.7,18.4,25.7,24.2z M22.7,39.3c0-10.1,0-20.1,0-30.2
	c-0.2,0.1-0.3,0.1-0.3,0.2c-3.2,2.4-6.4,4.7-9.6,7.1c-0.2,0.2-0.4,0.6-0.4,0.9c0,4.6,0,9.2,0,13.8c0,0.3,0.3,0.8,0.5,1
	c0.9,0.7,1.8,1.4,2.7,2C17.9,35.8,20.2,37.5,22.7,39.3z M9.3,17.4c-1.6,0-3.2,0-4.7,0c-1,0-1.6,0.6-1.6,1.5c0,3.5,0,7,0,10.5
	c0,0.9,0.5,1.5,1.5,1.5C6,31,7.6,31,9.3,31C9.3,26.4,9.3,22,9.3,17.4z"/>
<path class="st0" d="M40,23.9c0.3,4.7-2.9,9.5-7.4,11.3c-0.6,0.2-1.2,0.4-1.8,0.6c-1,0.2-1.8-0.2-2-1.1c-0.2-0.8,0.3-1.5,1.3-1.8
	c3-0.8,5.1-2.5,6.3-5.3c2-4.6-0.7-10.3-5.5-11.7c-0.4-0.1-0.7-0.2-1.1-0.3c-0.7-0.2-1.1-0.9-1-1.6c0.1-0.7,0.8-1.4,1.5-1.2
	c1.1,0.3,2.3,0.6,3.3,1.1C37.4,15.6,39.7,19.4,40,23.9z"/>
<path class="st0" d="M34.2,25.8c-0.1,1.4-1.4,3.3-3.7,4.4c-0.9,0.4-1.7,0.2-2.1-0.6c-0.4-0.8-0.1-1.6,0.8-2.1
	c1.4-0.7,2.1-1.8,2.1-3.3c0-1.5-0.7-2.7-2.1-3.4c-0.9-0.5-1.2-1.3-0.8-2.1c0.4-0.8,1.2-1,2.2-0.5C33,19.4,34.5,22,34.2,25.8z"/>
</svg>
