<?xml version="1.0" encoding="utf-8"?>
<!-- Generator: Adobe Illustrator 21.1.0, SVG Export Plug-In . SVG Version: 6.00 Build 0)  -->
<svg version="1.1" id="Layer_1" xmlns="http://www.w3.org/2000/svg" xmlns:xlink="http://www.w3.org/1999/xlink" x="0px" y="0px"
	 viewBox="0 0 40 50" style="enable-background:new 0 0 40 50;" xml:space="preserve">
<style type="text/css">
	.st0{fill:#989690;}
</style>
<g>
	<path class="st0" d="M8.4,33.9l3.9-5.3c0-3.8,0-7.6,0-11.3c0-0.3,0.2-0.7,0.4-0.9c3.2-2.4,6.4-4.7,9.6-7.1c0.1-0.1,0.2-0.1,0.3-0.2
		c0,1.9,0,3.7,0,5.5l3-4.1c0-1.3,0-2.5,0-3.8c0-0.4,0-0.7-0.1-1.1c-0.2-0.8-1-1.3-1.8-1c-0.3,0.1-0.6,0.3-0.9,0.5
		c-4,2.9-8,5.9-12,8.8c-0.4,0.3-0.9,0.5-1.4,0.5c-1.9,0.1-3.7,0-5.6,0.1c-2,0.1-3.8,1.8-3.9,3.8C0,22.1,0,25.9,0.1,29.8
		c0.1,2.5,1.8,4,4.3,4.1C5.7,34,7,33.9,8.4,33.9z M3,29.4c0-3.5,0-7,0-10.5c0-0.9,0.6-1.5,1.6-1.5c1.5,0,3.1,0,4.7,0
		c0,4.6,0,9.1,0,13.6c-1.6,0-3.2,0-4.8,0C3.5,30.9,3,30.4,3,29.4z"/>
	<path class="st0" d="M40,23.9c-0.2-4.3-2.3-7.8-5.8-9.8l-1.8,2.4c3.8,2.1,5.7,7,3.9,11.1c-1.2,2.8-3.3,4.6-6.3,5.3
		c-0.9,0.2-1.4,1-1.3,1.8c0.2,0.9,1,1.4,2,1.1c0.6-0.1,1.2-0.4,1.8-0.6C37.1,33.4,40.2,28.6,40,23.9z"/>
	<path class="st0" d="M30.5,30.2c2.4-1.1,3.6-3.1,3.7-4.4c0.3-3.6-1.1-6.1-3.2-7.4l-1.8,2.4c0,0,0,0,0.1,0c1.4,0.7,2.1,1.9,2.1,3.4
		c0,1.5-0.8,2.6-2.1,3.3c-0.9,0.4-1.2,1.3-0.8,2.1C28.7,30.4,29.6,30.6,30.5,30.2z"/>
	<path class="st0" d="M22.7,29.6c0,3.2,0,6.5,0,9.7c-1.6-1.2-3.1-2.3-4.7-3.4l-1.8,2.4c0.2,0.2,0.5,0.4,0.7,0.6
		c2.1,1.5,4.1,3,6.2,4.5c0.9,0.7,2,0.5,2.4-0.5c0.1-0.4,0.1-0.8,0.1-1.2c0-5.4,0-10.8,0-16.3L22.7,29.6z"/>
</g>
<rect x="-2.7" y="21.2" transform="matrix(0.5947 -0.8039 0.8039 0.5947 -9.8923 26.8623)" class="st0" width="48.8" height="4"/>
</svg>
